<?xml version="1.0" standalone="no"?>
<!DOCTYPE svg PUBLIC "-//W3C//DTD SVG 20010904//EN"
 "http://www.w3.org/TR/2001/REC-SVG-20010904/DTD/svg10.dtd">
<svg version="1.0" xmlns="http://www.w3.org/2000/svg"
 width="336.000000pt" height="336.000000pt" viewBox="0 0 336.000000 336.000000"
 preserveAspectRatio="xMidYMid meet">
<metadata>
Created by potrace 1.14, written by Peter Selinger 2001-2017
</metadata>
<g transform="translate(0.000000,336.000000) scale(0.100000,-0.100000)"
fill="#000000" stroke="none">
<path d="M2767 3274 c-10 -13 -13 -24 -7 -24 5 0 10 5 10 11 0 5 5 7 11 4 6
-4 8 -13 5 -21 -3 -9 0 -11 12 -7 15 6 16 5 3 -13 -14 -18 -14 -18 5 -1 19 18
19 19 -5 38 -13 10 -19 19 -14 19 6 0 18 -9 27 -19 14 -15 15 -24 7 -40 -16
-29 -14 -33 12 -26 15 4 18 4 8 -3 -8 -6 -10 -15 -6 -22 5 -9 4 -11 -3 -6 -7
4 -12 2 -12 -5 0 -7 9 -9 23 -6 21 6 21 6 3 -8 -15 -12 -16 -15 -5 -15 16 0
19 -26 6 -48 -6 -8 -3 -10 9 -5 12 4 15 3 10 -5 -15 -25 -15 -57 2 -76 10 -12
12 -16 3 -11 -11 6 -13 4 -8 -7 3 -9 0 -21 -6 -28 -9 -9 -9 -11 -1 -7 7 4 15
0 18 -9 3 -8 2 -12 -3 -9 -5 3 -12 1 -16 -5 -3 -5 -1 -10 6 -10 7 0 9 -3 6 -7
-4 -3 -2 -12 3 -18 7 -9 6 -16 -4 -25 -13 -10 -15 -8 -11 9 2 11 0 23 -5 26
-4 3 -6 -11 -4 -30 3 -34 -9 -47 -20 -22 -4 6 -4 2 -2 -10 2 -13 0 -23 -5 -23
-5 0 -9 7 -9 15 0 12 -4 13 -18 6 -13 -7 -23 -6 -33 2 -7 7 -5 1 6 -12 l20
-24 -24 13 c-21 11 -23 10 -18 -4 4 -9 3 -15 -1 -15 -29 5 -44 -2 -38 -17 5
-14 4 -15 -9 -4 -13 11 -18 10 -28 -1 -7 -8 -11 -12 -10 -10 2 2 -3 11 -10 19
-10 13 -9 15 4 10 9 -3 22 -2 30 4 11 8 10 9 -3 4 -12 -3 -18 0 -18 10 0 8 4
13 9 9 5 -3 13 -1 16 5 4 6 3 10 -2 9 -21 -4 -37 2 -27 9 7 4 14 16 16 27 6
26 -20 78 -33 69 -7 -4 -8 -9 -1 -13 5 -3 7 -15 5 -26 -2 -11 -5 -25 -5 -32
-1 -6 -10 -10 -20 -8 -15 3 -16 1 -8 -16 7 -12 7 -19 1 -19 -6 0 -7 -8 -4 -17
6 -16 5 -17 -12 -3 -16 13 -18 13 -13 0 5 -15 -21 -52 -33 -44 -4 2 -5 -6 -1
-18 3 -14 1 -19 -6 -14 -14 8 -36 -30 -26 -46 4 -6 3 -8 -3 -5 -5 3 -22 -3
-39 -14 -16 -10 -24 -19 -19 -19 6 0 17 6 25 13 12 10 12 9 2 -5 -10 -13 -10
-17 0 -22 7 -3 1 -3 -13 0 -16 3 -30 1 -34 -7 -6 -8 -4 -10 5 -4 8 5 11 4 6
-3 -4 -6 -14 -8 -23 -5 -12 5 -14 3 -8 -7 6 -10 4 -10 -11 -2 -14 8 -25 4 -53
-16 -19 -15 -32 -20 -27 -12 4 9 1 8 -7 -2 -14 -18 -33 -25 -23 -10 3 5 -1 9
-9 9 -8 0 -11 -5 -8 -10 4 -7 -1 -8 -12 -3 -15 5 -16 4 -5 -9 11 -13 10 -14
-5 -9 -13 5 -16 4 -11 -4 5 -9 0 -9 -19 -2 -19 7 -24 7 -19 -2 5 -8 2 -9 -9
-5 -9 3 -19 2 -22 -4 -4 -5 -11 -6 -17 -3 -7 5 -9 2 -6 -7 4 -10 -1 -15 -13
-16 -12 -1 -17 3 -13 10 3 7 0 5 -8 -3 -13 -15 -31 -22 -55 -23 -7 0 -10 -4
-7 -9 3 -5 10 -5 16 -2 6 4 8 3 5 -3 -4 -6 -17 -10 -29 -9 -28 2 -52 -19 -42
-35 4 -7 3 -9 -3 -6 -15 9 -68 -8 -66 -21 2 -7 -8 -14 -22 -18 -14 -3 -22 -10
-19 -15 3 -5 0 -10 -5 -10 -6 -1 -17 -2 -23 -3 -7 -1 -12 -10 -10 -20 3 -13
-1 -17 -12 -13 -11 4 -13 1 -9 -10 5 -12 2 -15 -10 -10 -11 4 -14 2 -10 -8 3
-8 10 -12 16 -8 6 3 7 1 3 -6 -6 -9 -12 -9 -24 1 -10 7 -14 8 -9 3 4 -4 -1
-18 -10 -29 -17 -20 -17 -20 2 -6 14 10 16 10 8 1 -6 -7 -9 -21 -5 -30 5 -14
3 -14 -12 2 -19 18 -31 23 -21 8 3 -5 1 -13 -5 -16 -8 -5 -8 -11 0 -20 7 -9 6
-16 -5 -25 -8 -7 -13 -16 -10 -20 3 -5 0 -12 -6 -16 -8 -4 -9 -3 -5 4 4 7 1
12 -8 12 -9 0 -15 -3 -15 -7 4 -26 -3 -53 -13 -51 -7 2 -12 -4 -13 -12 -1 -31
-17 -60 -28 -53 -7 4 -5 -2 3 -12 9 -11 10 -16 3 -11 -8 4 -13 2 -13 -4 0 -6
-5 -8 -12 -4 -10 6 -10 4 -2 -7 11 -15 11 -25 0 -51 -5 -10 -12 -15 -17 -12
-5 3 -9 0 -9 -5 0 -6 5 -11 10 -11 6 0 5 -8 -2 -19 -7 -11 -17 -17 -23 -14 -5
3 -4 0 3 -8 6 -7 12 -18 12 -23 0 -6 -5 -4 -10 4 -7 11 -10 7 -10 -19 0 -25
-4 -32 -14 -28 -10 4 -13 1 -9 -8 3 -8 10 -12 17 -9 6 3 0 -3 -13 -14 -17 -14
-22 -26 -18 -41 4 -18 3 -20 -9 -10 -12 10 -13 9 -8 -6 6 -14 4 -16 -7 -10
-11 7 -11 5 1 -10 14 -17 13 -18 -3 -12 -10 4 -16 3 -12 -2 3 -5 2 -12 -3 -15
-5 -3 -7 -20 -5 -38 3 -25 2 -29 -6 -18 -9 12 -11 11 -12 -10 -1 -14 -3 -31
-3 -39 -1 -8 -9 -15 -19 -17 -15 -2 -16 0 -6 12 6 8 9 17 5 21 -3 3 -6 2 -6
-3 0 -14 -44 -59 -57 -59 -7 0 -12 -4 -10 -10 1 -5 6 -9 10 -7 5 1 5 -3 1 -9
-5 -9 -13 -5 -26 10 -10 13 -18 22 -19 20 -7 -37 -7 -49 1 -54 6 -3 7 2 4 12
-5 16 -4 16 10 -1 8 -10 14 -22 12 -25 -2 -3 9 -6 24 -6 16 -1 27 2 24 6 -6
11 27 4 34 -7 10 -13 52 -13 45 0 -3 6 -3 8 2 4 4 -4 16 -3 26 3 14 7 17 6 13
-5 -4 -11 3 -12 36 -6 32 6 38 5 30 -5 -8 -10 -5 -13 15 -11 14 0 25 6 26 11
0 6 4 1 9 -10 l9 -20 0 20 c1 17 3 17 11 5 8 -13 13 -13 31 -2 11 8 18 9 15 4
-3 -6 1 -13 10 -16 23 -9 31 -7 16 3 -10 6 -8 10 8 14 17 4 20 2 16 -11 -5
-14 -4 -14 8 1 10 13 15 15 18 5 4 -11 8 -10 21 1 11 9 17 10 17 2 0 -6 5 -11
11 -11 5 0 7 5 3 12 -4 7 -3 8 5 4 6 -4 19 -2 28 6 9 7 14 8 11 3 -4 -6 -3
-17 3 -25 7 -12 9 -11 10 5 0 12 3 15 6 7 4 -10 8 -9 17 4 10 13 15 14 21 4 5
-9 4 -11 -3 -6 -7 4 -12 3 -12 -3 0 -5 9 -9 20 -8 11 1 19 6 16 12 -3 8 14 11
50 9 35 -1 52 1 48 8 -4 5 6 2 22 -8 21 -14 26 -14 17 -3 -10 12 -8 15 8 16
13 1 17 -2 12 -10 -4 -8 -2 -8 9 1 9 7 28 11 42 8 16 -3 24 -1 20 5 -3 6 0 10
7 8 24 -3 39 1 37 9 -2 4 -1 7 2 8 3 0 14 6 26 12 16 8 24 8 32 0 9 -9 12 -9
12 1 0 8 6 11 16 7 8 -3 12 -2 9 4 -8 13 45 38 75 34 14 -1 19 0 13 2 -7 3
-13 10 -13 15 0 5 6 8 13 7 6 -2 11 3 9 11 -3 12 0 12 12 2 12 -10 18 -7 37
19 13 17 38 39 57 50 20 12 30 25 26 32 -5 7 -3 8 5 3 9 -5 10 -10 2 -18 -6
-6 -11 -16 -11 -21 1 -11 24 24 25 35 0 4 11 17 25 29 14 12 19 18 11 14 -9
-5 -12 -3 -7 4 4 7 13 12 20 12 8 0 12 10 11 25 -2 14 1 23 6 19 5 -3 9 0 9 6
0 6 5 8 11 4 6 -3 10 1 9 12 -1 11 -1 22 0 27 1 4 3 12 4 19 0 6 8 13 16 15
13 4 13 3 0 -6 -8 -6 -10 -11 -4 -11 35 0 40 53 8 84 -13 13 -11 15 12 13 17
-1 29 4 31 13 3 11 2 12 -4 3 -7 -10 -13 -10 -29 2 -13 11 -15 15 -4 13 30 -4
59 12 54 30 -5 13 -4 14 4 3 7 -10 11 -10 14 -1 3 9 8 7 17 -4 12 -14 12 -16
-2 -10 -13 4 -15 0 -11 -19 2 -14 0 -28 -5 -31 -4 -3 -7 6 -5 19 1 14 -2 23
-6 20 -5 -3 -7 -12 -4 -19 3 -8 1 -17 -5 -21 -14 -8 -14 -25 0 -25 5 0 8 4 5
8 -2 4 4 8 15 8 16 0 17 -3 7 -11 -7 -5 -15 -19 -16 -30 -2 -11 -1 -17 4 -13
4 4 12 4 18 -2 8 -6 12 -3 13 11 1 12 -2 17 -10 13 -7 -4 -8 -3 -4 1 14 16 36
14 31 -3 -5 -14 -4 -14 6 1 6 10 16 14 23 10 7 -4 3 6 -7 22 -19 30 -19 30 0
15 10 -8 23 -19 27 -25 5 -5 5 1 2 14 -6 18 -4 22 6 15 10 -6 10 -3 -1 11 -14
17 -13 18 3 12 9 -3 17 -2 17 4 0 6 5 7 10 4 6 -4 10 5 10 19 0 24 10 31 34
27 5 -1 4 4 -3 13 -8 10 -9 16 -1 21 6 3 7 11 4 17 -4 7 -2 8 5 4 9 -6 9 -12
-1 -24 -7 -10 0 -6 14 7 23 20 29 41 12 41 -3 0 -2 -5 2 -12 5 -7 3 -8 -6 -3
-10 6 -7 12 10 25 14 10 20 22 15 29 -4 8 1 14 14 18 11 3 18 9 15 14 -3 5 1
9 8 9 9 0 9 3 -2 10 -13 8 -13 10 2 10 12 0 15 5 11 17 -4 11 -3 14 5 9 7 -4
12 -2 12 4 0 6 4 9 8 6 5 -3 9 1 9 9 0 8 -4 12 -8 10 -4 -3 -9 2 -12 10 -4 9
-1 12 7 9 7 -3 16 2 20 11 3 9 2 14 -2 11 -4 -2 -9 5 -9 17 -2 15 0 18 6 9 10
-17 19 2 16 35 -1 19 1 21 14 10 12 -9 13 -9 7 1 -4 7 -2 12 4 12 7 0 5 7 -4
16 -20 19 -20 25 -2 18 8 -3 17 0 22 7 5 8 3 10 -6 4 -8 -5 -11 -3 -8 6 3 8
11 13 17 11 7 -1 10 2 6 8 -3 6 -11 8 -16 5 -5 -4 -9 -1 -9 4 0 6 5 11 10 11
6 0 10 7 10 16 0 9 -5 12 -12 8 -7 -4 -8 -3 -4 4 4 7 15 12 24 13 14 0 13 2
-3 9 -11 5 -14 9 -6 9 11 1 11 4 1 16 -11 13 -10 14 2 10 11 -4 14 2 14 25 0
16 -4 30 -8 30 -5 0 -6 5 -3 10 4 6 11 8 16 5 5 -3 6 1 3 9 -3 9 -11 13 -18
10 -6 -3 -2 2 8 10 13 10 15 16 7 16 -10 0 -11 3 -2 14 9 11 9 16 0 22 -8 5
-9 3 -4 -6 5 -9 4 -11 -3 -6 -8 5 -9 13 -3 24 10 21 3 45 -11 36 -5 -4 -2 5 7
20 10 14 13 26 7 26 -6 0 -9 11 -7 25 1 14 -2 25 -6 25 -5 0 -9 5 -9 11 0 5 4
8 8 5 5 -3 9 1 9 8 0 7 -6 13 -13 13 -7 0 -10 -5 -7 -11 4 -6 0 -5 -9 2 -13
10 -17 38 -8 50 2 1 3 5 4 10 1 4 5 13 10 21 6 9 5 12 -2 7 -12 -7 -32 23 -25
40 2 6 -3 14 -12 18 -9 3 -14 2 -11 -3 3 -5 -1 -12 -10 -15 -8 -3 -12 -2 -9 4
3 6 1 10 -4 10 -6 0 -11 -7 -11 -15 0 -8 6 -15 13 -15 8 0 7 -4 -3 -11 -12 -9
-12 -10 3 -5 10 3 21 6 23 6 3 0 3 4 -1 9 -3 5 -2 12 3 15 5 3 9 -2 9 -10 0
-9 -8 -21 -18 -27 -16 -10 -16 -12 -1 -23 14 -10 14 -14 3 -28 -11 -13 -11
-17 2 -22 12 -4 14 -11 6 -30 -5 -15 -5 -23 0 -19 5 3 12 1 16 -5 3 -5 -1 -10
-10 -10 -9 0 -13 -5 -10 -10 4 -6 11 -7 17 -4 6 4 4 -3 -5 -16 -12 -18 -14
-27 -5 -37 7 -9 7 -13 -1 -13 -6 0 -11 -5 -11 -11 0 -5 5 -7 10 -4 13 8 13 -1
-1 -27 -8 -16 -8 -19 1 -13 9 6 9 3 1 -14 -10 -18 -9 -20 6 -15 10 2 8 -1 -4
-7 -26 -14 -31 -34 -7 -25 14 5 15 4 4 -9 -7 -8 -17 -12 -24 -9 -6 3 -2 -2 9
-12 20 -16 20 -16 -1 -12 -13 3 -21 0 -21 -8 0 -7 4 -11 7 -9 4 3 8 -7 8 -21
0 -15 -5 -23 -12 -21 -9 4 -12 -7 -10 -34 2 -35 0 -38 -14 -27 -13 11 -14 10
-4 -9 9 -15 9 -24 1 -28 -6 -4 -8 -13 -5 -20 3 -9 -2 -11 -17 -8 -13 3 -18 1
-12 -4 6 -4 11 -14 13 -22 3 -12 0 -12 -12 -2 -11 9 -16 9 -22 0 -4 -8 -3 -9
4 -5 8 5 11 -1 10 -18 -1 -13 -6 -22 -10 -20 -5 3 -5 10 -2 16 4 7 2 8 -4 4
-6 -4 -8 -14 -5 -23 5 -13 2 -15 -13 -10 -17 6 -17 5 -2 -5 15 -11 15 -13 -5
-23 -14 -7 -22 -19 -21 -33 1 -15 -4 -21 -15 -20 -11 2 -16 -5 -15 -24 0 -22
-3 -25 -17 -17 -14 7 -16 5 -12 -9 2 -10 -4 -25 -13 -33 -15 -12 -16 -12 -9 0
6 10 4 12 -4 6 -7 -4 -10 -17 -7 -30 4 -14 0 -28 -9 -35 -10 -9 -15 -9 -15 -1
0 6 5 11 10 11 6 0 10 5 10 12 0 7 -7 5 -18 -5 -21 -19 -25 -48 -11 -83 6 -17
6 -23 -1 -19 -6 3 -10 12 -10 20 0 7 -6 15 -13 18 -8 3 -14 -1 -14 -9 0 -8 4
-14 9 -14 4 0 8 -4 8 -10 0 -5 -3 -9 -7 -9 -23 4 -32 -3 -26 -18 4 -11 3 -14
-5 -9 -7 4 -12 2 -12 -5 0 -19 -13 -1 -18 24 -3 12 -5 37 -5 55 -1 17 -6 32
-12 32 -5 1 1 7 14 14 20 11 21 14 7 19 -11 5 -15 3 -10 -5 4 -7 3 -8 -4 -4
-9 5 -7 15 5 34 17 26 17 26 0 13 -18 -15 -22 -8 -17 33 1 10 -3 22 -10 26 -6
4 -12 13 -13 21 -2 8 -7 21 -12 29 -8 13 -7 13 8 1 9 -7 15 -17 12 -21 -3 -5
-1 -11 4 -14 10 -7 9 9 -3 36 -4 9 -5 22 -1 29 6 8 2 8 -14 0 -11 -7 -21 -8
-21 -2 0 5 8 12 18 16 15 6 15 8 -6 25 -15 13 -18 20 -10 23 10 4 10 6 1 6 -7
1 -13 8 -13 17 0 8 -4 13 -8 10 -5 -3 -9 1 -9 8 0 8 6 12 13 9 6 -2 15 1 19 7
5 8 15 4 31 -11 13 -12 24 -17 24 -11 0 7 -5 12 -12 12 -9 0 -9 3 0 12 10 10
15 10 22 -2 7 -11 12 -12 21 -3 6 6 18 9 25 6 8 -3 14 1 14 8 0 7 3 10 6 6 7
-7 34 17 34 29 0 5 -5 3 -12 -4 -15 -15 -28 -16 -28 -2 0 5 3 9 8 8 4 0 15 2
25 7 15 6 16 10 5 16 -9 6 -7 9 8 9 12 0 25 7 28 16 5 13 4 14 -7 6 -10 -9
-14 -8 -14 3 0 7 3 14 6 13 19 -2 44 4 34 9 -7 2 -13 9 -13 15 0 6 7 8 15 4
13 -5 14 -2 4 15 -8 17 -8 20 1 14 9 -5 10 -1 5 16 -3 13 -3 20 2 14 4 -5 15
-11 23 -13 11 -3 9 2 -5 18 -14 15 -15 19 -4 15 10 -4 16 0 16 9 0 8 -3 13 -7
11 -3 -2 -6 5 -6 15 0 15 3 17 16 7 8 -6 12 -8 8 -3 -4 4 -3 19 3 33 5 13 5
22 1 19 -5 -3 -9 1 -9 8 0 9 7 12 16 8 14 -5 14 -3 2 11 -12 15 -11 17 5 17
14 0 15 3 6 8 -7 5 -15 21 -18 35 -4 25 3 32 29 28 5 -1 5 4 0 11 -4 7 -8 27
-8 45 0 18 -5 36 -9 40 -5 4 -6 2 -2 -4 10 -18 1 -16 -14 3 -11 12 -11 15 1
12 8 -2 13 3 11 11 -2 8 2 17 9 21 8 5 5 10 -10 15 -21 6 -30 27 -10 23 6 -2
13 3 15 10 1 7 0 8 -3 2 -8 -16 -43 19 -36 36 3 8 10 11 16 7 6 -3 7 -1 3 6
-4 6 -12 9 -17 6 -5 -4 -9 -1 -9 5 0 6 -4 8 -10 5 -6 -3 -7 1 -3 10 5 13 7 14
14 3 16 -25 9 4 -8 33 -13 21 -23 28 -38 24 -11 -3 -14 -2 -7 1 6 3 10 10 7
15 -4 5 2 6 12 3 15 -5 16 -4 3 5 -8 6 -24 11 -35 12 l-20 0 20 9 c11 5 14 9
8 9 -7 1 -13 6 -13 12 0 5 6 7 13 3 8 -5 8 -3 -2 9 -7 9 -17 14 -22 11 -5 -3
-12 1 -15 10 -9 25 -28 25 -47 0z m369 -330 c2 -12 -1 -13 -12 -3 -7 6 -11 16
-8 21 7 11 17 3 20 -18z m-180 -59 c0 -13 -3 -22 -7 -20 -4 3 -6 13 -4 23 1 9
-2 24 -8 32 -9 12 -9 13 3 2 8 -7 15 -23 16 -37z m194 -35 c6 -11 8 -20 6 -20
-3 0 -10 9 -16 20 -6 11 -8 20 -6 20 3 0 10 -9 16 -20z m14 -56 c3 -8 2 -12
-4 -9 -6 3 -10 10 -10 16 0 14 7 11 14 -7z m-355 -72 c12 -22 11 -23 -8 -13
-12 7 -18 17 -14 27 6 17 6 17 22 -14z m-43 9 c-3 -5 1 -11 9 -15 15 -6 17
-56 2 -56 -4 0 -5 -4 -2 -10 3 -5 -1 -10 -9 -10 -14 0 -22 -32 -17 -63 1 -5
-3 -6 -8 -3 -5 3 -17 -2 -28 -12 -10 -9 -12 -12 -4 -7 12 9 12 7 2 -13 -7 -12
-16 -20 -22 -17 -5 4 -9 -1 -9 -9 0 -10 6 -13 18 -10 14 5 15 4 2 -5 -8 -6
-23 -11 -32 -11 -10 0 -18 -5 -18 -11 0 -6 7 -9 14 -6 11 4 13 1 9 -11 -6 -15
-5 -15 11 -3 9 8 16 10 15 5 -4 -23 2 -26 16 -8 8 10 15 15 14 9 -3 -25 2 -27
23 -9 12 10 18 13 14 7 -4 -7 -2 -13 3 -13 6 0 11 -5 11 -11 0 -5 -4 -8 -9 -4
-5 3 -13 1 -16 -5 -5 -8 -11 -7 -21 1 -11 9 -17 9 -28 0 -10 -9 -16 -9 -21 -1
-5 8 -10 8 -20 0 -9 -8 -17 -7 -26 3 -8 7 -22 16 -31 20 -12 4 -15 12 -11 23
4 11 2 15 -4 11 -6 -4 -9 7 -7 29 2 31 1 34 -13 22 -14 -11 -15 -11 -5 8 6 12
8 25 4 29 -4 5 -1 5 7 0 10 -6 11 -2 6 16 -7 22 -7 23 11 9 10 -8 16 -11 12
-6 -4 4 4 18 17 31 14 12 21 26 17 30 -4 5 1 5 11 2 12 -5 21 0 29 17 6 14 16
22 23 20 7 -3 16 0 20 6 6 9 9 9 15 0 5 -8 9 -7 13 5 4 9 3 13 -2 10 -5 -3
-13 0 -17 6 -4 7 -3 9 4 5 6 -3 13 -2 17 4 3 5 8 10 11 10 3 0 3 -4 0 -9z
m-216 -25 c0 -2 -7 -7 -16 -10 -8 -3 -12 -2 -9 4 6 10 25 14 25 6z m-160 -123
c0 -9 -3 -13 -7 -10 -3 4 -13 1 -22 -5 -10 -8 -9 -4 3 10 23 26 26 27 26 5z
m-203 -78 c0 -8 -4 -12 -9 -9 -5 3 -6 10 -3 15 9 13 12 11 12 -6z m487 -173
c3 -5 -1 -9 -9 -9 -8 0 -12 4 -9 9 3 4 7 8 9 8 2 0 6 -4 9 -8z m293 -57 c0 -8
-4 -12 -9 -9 -5 3 -6 10 -3 15 9 13 12 11 12 -6z m-22 -53 c-3 -3 -11 0 -18 7
-9 10 -8 11 6 5 10 -3 15 -9 12 -12z m-1165 -22 c0 -5 -5 -10 -11 -10 -5 0 -7
5 -4 10 3 6 8 10 11 10 2 0 4 -4 4 -10z m959 -329 c-3 -8 -11 -7 -24 4 -19 14
-19 15 -1 8 15 -5 17 -3 11 8 -6 11 -5 11 5 2 7 -6 11 -16 9 -22z m-249 -286
c-7 -9 -15 -13 -19 -10 -3 3 1 10 9 15 21 14 24 12 10 -5z m-1075 -135 c3 -6
-1 -7 -9 -4 -18 7 -21 14 -7 14 6 0 13 -4 16 -10z"/>
<path d="M2716 2601 c-4 -5 -2 -12 3 -15 5 -4 12 -2 15 3 4 5 2 12 -3 15 -5 4
-12 2 -15 -3z"/>
<path d="M2646 2451 c-4 -5 -2 -12 3 -15 5 -4 12 -2 15 3 4 5 2 12 -3 15 -5 4
-12 2 -15 -3z"/>
<path d="M2665 3132 c-13 -9 -19 -42 -7 -42 4 0 17 7 28 15 16 13 16 14 2 9
-20 -7 -25 12 -5 19 6 3 8 6 2 6 -5 0 -14 -3 -20 -7z"/>
<path d="M2665 3065 c-13 -40 -15 -56 -5 -50 5 3 10 1 10 -4 0 -6 -3 -11 -7
-11 -5 0 -13 -11 -20 -25 -6 -14 -7 -25 -2 -25 12 0 49 -61 43 -71 -2 -4 -1
-10 4 -13 7 -4 8 22 3 67 -1 4 -7 7 -15 7 -20 0 -29 17 -19 34 6 11 13 12 23
6 13 -8 12 -10 -2 -10 -27 0 -21 -17 7 -22 20 -4 23 -3 14 8 -6 8 -8 14 -4 14
4 0 2 7 -5 15 -11 13 -10 15 6 9 18 -5 18 -5 1 9 -14 11 -15 16 -5 20 9 4 7 6
-4 6 -9 1 -19 5 -22 10 -4 5 2 8 11 7 10 -2 12 -1 5 1 -7 3 -10 9 -6 14 3 5
10 6 16 3 6 -4 8 -2 4 4 -3 5 0 12 6 15 7 3 3 4 -9 4 -12 -1 -25 -10 -28 -22z"/>
<path d="M2925 3060 c3 -5 8 -10 11 -10 2 0 4 5 4 10 0 6 -5 10 -11 10 -5 0
-7 -4 -4 -10z"/>
<path d="M3143 2903 c0 -9 4 -10 14 -2 7 6 13 12 13 14 0 1 -6 2 -13 2 -8 0
-14 -6 -14 -14z"/>
<path d="M2623 2889 c-2 -23 3 -25 10 -4 4 8 3 16 -1 19 -4 3 -9 -4 -9 -15z"/>
<path d="M1976 2433 c-6 -14 -5 -15 5 -6 7 7 10 15 7 18 -3 3 -9 -2 -12 -12z"/>
<path d="M2665 2399 c-4 -6 -5 -12 -2 -15 2 -3 7 2 10 11 7 17 1 20 -8 4z"/>
<path d="M3131 2314 c0 -11 3 -14 6 -6 3 7 2 16 -1 19 -3 4 -6 -2 -5 -13z"/>
<path d="M830 2239 c12 -9 11 -10 -8 -6 -12 3 -20 1 -17 -3 3 -5 1 -11 -5 -15
-13 -8 -13 -25 1 -25 5 0 8 4 4 9 -3 5 0 13 6 17 8 4 9 3 5 -4 -4 -7 -1 -12 6
-13 7 0 3 -5 -9 -11 -30 -14 -29 -26 1 -24 14 0 22 6 19 14 -3 6 1 12 8 12 11
0 11 3 -1 10 -13 9 -13 12 3 24 16 12 16 14 1 20 -24 9 -31 7 -14 -5z"/>
<path d="M441 2164 c0 -11 3 -14 6 -6 3 7 2 16 -1 19 -3 4 -6 -2 -5 -13z"/>
<path d="M1736 2164 c-5 -14 -4 -15 9 -4 17 14 19 20 6 20 -5 0 -12 -7 -15
-16z"/>
<path d="M771 2150 c3 -52 0 -62 -17 -56 -14 5 -15 4 -4 -9 10 -12 10 -15 0
-15 -8 0 -10 -3 -7 -6 3 -4 2 -15 -3 -25 -7 -12 -7 -20 0 -24 5 -3 10 -11 10
-17 0 -6 -7 -5 -17 3 -12 10 -15 11 -9 1 4 -7 3 -19 -4 -27 -8 -9 -8 -15 0
-20 6 -4 9 -1 8 6 -2 6 3 14 10 16 11 4 12 1 3 -14 -7 -14 -7 -24 2 -33 8 -8
8 -11 1 -7 -16 9 -24 -26 -11 -49 15 -25 17 -43 7 -49 -5 -3 -7 4 -5 15 2 11
-1 20 -7 20 -5 0 -8 -6 -5 -14 3 -7 0 -19 -6 -26 -9 -10 -9 -11 1 -6 6 4 12 2
12 -4 0 -6 6 -8 13 -4 6 4 9 4 5 -1 -4 -4 -3 -16 3 -26 7 -15 7 -19 -3 -17 -7
2 -13 -4 -13 -12 0 -8 -4 -21 -9 -29 -6 -9 -5 -12 1 -8 17 10 38 -23 38 -59 1
-18 -2 -31 -6 -28 -4 2 -11 -1 -15 -7 -4 -7 -3 -9 4 -5 6 3 15 -2 21 -11 7
-13 10 -14 11 -4 0 8 3 11 6 8 4 -4 1 -13 -6 -22 -9 -11 -9 -15 -1 -15 9 0 9
-5 0 -21 -6 -12 -7 -19 -1 -15 9 5 39 -21 42 -38 1 -5 -4 -13 -12 -17 -10 -7
-10 -9 0 -9 8 0 10 -5 6 -12 -5 -9 -2 -8 9 1 10 8 20 11 24 7 3 -3 1 -6 -7 -6
-10 0 -10 -4 1 -17 10 -11 10 -14 2 -9 -19 11 -16 -9 4 -25 10 -8 14 -9 10 -2
-4 6 -3 14 2 17 10 7 9 -20 -2 -30 -9 -9 33 -65 44 -59 5 4 9 2 9 -4 0 -5 -6
-12 -12 -14 -8 -3 -5 -6 5 -6 12 -1 16 -5 11 -13 -5 -9 -2 -8 9 1 15 12 17 12
11 -4 -5 -13 -4 -16 5 -11 8 5 12 3 10 -5 -3 -26 1 -40 10 -34 5 3 12 1 15 -4
4 -5 -5 -8 -19 -6 -17 1 -25 -3 -26 -14 0 -11 -3 -8 -9 7 -5 12 -12 22 -14 22
-3 0 -3 -6 0 -14 4 -10 -2 -12 -20 -9 -14 3 -23 9 -20 14 3 5 1 9 -5 9 -5 0
-12 -6 -15 -12 -4 -7 -4 -2 -2 11 4 18 2 21 -7 12 -14 -14 -30 -15 -22 -1 3 6
-3 10 -15 10 -12 0 -19 4 -16 9 7 10 -22 25 -42 22 -7 -1 -11 4 -10 11 2 7 -3
12 -11 10 -12 -3 -12 -1 0 14 8 10 9 15 3 11 -6 -3 -20 0 -30 8 -19 15 -18 15
1 9 15 -4 13 -1 -5 10 -14 8 -19 15 -11 16 10 0 7 6 -7 19 -12 10 -22 24 -22
30 0 7 -12 24 -27 38 -18 17 -22 24 -11 20 10 -4 18 -2 18 3 0 6 -4 10 -10 10
-5 0 -10 9 -10 20 0 11 -6 20 -12 20 -8 0 -9 3 -3 8 6 4 11 14 13 22 3 12 1
13 -9 3 -7 -7 -18 -13 -24 -13 -5 0 -4 4 4 9 12 8 12 12 2 24 -10 13 -9 15 11
11 22 -5 23 -5 3 8 -13 8 -20 21 -17 33 2 15 1 17 -7 6 -6 -10 -8 -2 -6 27 1
26 -2 42 -9 42 -7 0 -8 3 -1 8 13 9 13 42 0 62 -7 13 -6 13 7 2 9 -7 15 -23
13 -34 -3 -11 -1 -18 3 -14 3 4 7 21 7 38 1 24 -6 35 -30 49 -34 22 -49 24
-39 7 4 -7 3 -8 -5 -4 -6 4 -9 11 -6 16 3 5 0 12 -6 16 -7 4 -9 3 -5 -4 3 -6
2 -13 -4 -17 -5 -3 -10 0 -11 7 0 7 -4 4 -8 -7 -5 -11 -7 -28 -5 -37 1 -10 -2
-15 -10 -12 -7 3 -12 -4 -12 -15 0 -13 4 -17 11 -11 6 5 10 -2 10 -20 0 -16
-4 -26 -10 -23 -5 3 -5 0 2 -7 9 -9 9 -19 2 -33 -6 -11 -7 -17 -2 -14 4 2 17
1 28 -4 19 -7 19 -8 -2 -8 -13 -1 -23 -5 -23 -10 0 -6 8 -8 18 -6 13 2 17 -3
16 -24 -1 -14 3 -31 8 -38 6 -7 8 -18 5 -25 -2 -7 0 -21 5 -31 6 -12 6 -23 -1
-31 -8 -9 -7 -13 4 -13 8 0 12 3 10 7 -2 4 2 7 10 7 10 0 11 -5 4 -19 -7 -12
-6 -18 1 -18 6 0 10 -11 8 -23 -3 -25 24 -61 37 -49 5 4 5 1 1 -6 -6 -9 -11
-10 -20 -3 -9 8 -13 7 -13 -4 0 -8 4 -12 8 -10 3 3 13 -3 20 -12 8 -9 9 -14 4
-11 -6 4 -11 -2 -11 -12 0 -15 3 -16 14 -8 7 6 12 7 10 2 -1 -5 3 -20 10 -34
12 -22 11 -23 -1 -7 -8 9 -18 17 -22 17 -4 0 -2 -6 4 -14 6 -8 11 -18 10 -22
-4 -21 2 -26 16 -14 14 11 14 10 6 -14 -7 -18 -7 -26 0 -26 6 0 8 -7 5 -16 -4
-9 -1 -23 5 -30 9 -11 8 -14 -2 -15 -8 0 -5 -4 6 -9 13 -6 15 -9 5 -9 -13 -1
-13 -2 0 -12 12 -8 12 -12 2 -16 -10 -4 -9 -8 5 -18 15 -11 16 -16 5 -27 -11
-11 -12 -10 -7 5 4 9 3 17 -1 17 -5 0 -9 -23 -10 -50 0 -28 3 -50 8 -50 5 0 6
-5 3 -10 -4 -6 -12 -7 -18 -3 -9 5 -9 3 0 -8 10 -12 9 -20 -3 -37 -9 -13 -12
-22 -7 -21 20 3 34 -2 28 -11 -4 -6 -10 -8 -14 -6 -4 3 -8 -1 -8 -8 0 -8 7
-12 16 -9 12 3 12 2 -2 -7 -9 -6 -21 -9 -26 -5 -5 3 -12 1 -15 -4 -4 -5 5 -8
19 -6 14 1 28 -2 32 -8 3 -6 1 -7 -5 -3 -8 5 -12 0 -12 -13 0 -11 -5 -23 -10
-26 -8 -5 -8 -11 0 -20 8 -9 8 -15 0 -18 -6 -3 -5 -4 2 -3 7 2 13 12 13 24 0
11 2 23 5 26 3 3 6 -10 6 -29 0 -21 -5 -35 -13 -35 -6 0 -15 -5 -18 -10 -4 -7
3 -8 22 -4 l28 7 -25 -22 -25 -22 25 11 25 11 -25 -22 c-23 -20 -23 -22 -4
-17 18 5 21 2 16 -15 -3 -11 -1 -18 4 -15 13 9 13 -65 0 -75 -6 -5 0 -5 14 -1
22 6 23 5 12 -9 -10 -12 -10 -17 -1 -23 8 -5 9 -3 4 6 -6 9 -4 11 4 6 9 -6 8
-12 -4 -26 -11 -12 -13 -20 -5 -25 6 -3 9 -1 8 6 -2 6 4 14 12 17 8 2 12 1 8
-3 -4 -5 -2 -15 5 -23 10 -13 9 -14 -3 -7 -12 7 -13 6 -4 -6 6 -8 10 -22 9
-32 -2 -9 1 -15 6 -11 5 3 7 9 4 14 -3 4 2 13 10 20 10 9 15 9 15 1 0 -6 -4
-11 -8 -11 -4 0 -8 -11 -8 -25 0 -17 4 -24 13 -21 15 6 13 -15 -2 -26 -6 -5
-6 -8 2 -8 7 0 17 8 23 17 8 12 10 13 7 3 -7 -23 10 -60 28 -60 13 0 14 -4 4
-21 -6 -12 -7 -19 -1 -15 5 3 18 -6 28 -20 39 -55 66 -84 77 -84 6 0 2 7 -9
16 -19 15 -19 15 1 5 12 -5 27 -21 35 -35 10 -19 17 -23 26 -15 10 8 11 5 7
-12 -4 -15 -3 -20 5 -15 7 4 12 2 12 -4 0 -6 8 -10 18 -8 11 2 17 -3 16 -14
-1 -11 4 -14 14 -11 10 4 13 2 8 -5 -3 -6 -1 -14 5 -18 7 -4 9 -3 6 3 -4 6 5
10 22 9 16 -1 29 -5 28 -11 -1 -5 4 -9 11 -7 6 1 12 -2 12 -7 0 -5 7 -12 16
-15 15 -6 15 -4 3 10 -13 16 -12 16 7 6 12 -6 25 -8 30 -4 5 4 3 0 -4 -10 -10
-12 -10 -18 -1 -24 8 -5 9 -3 4 6 -6 9 -1 10 16 5 20 -5 21 -4 9 5 -13 10 -12
11 3 6 10 -3 21 -6 23 -6 3 0 3 -4 0 -8 -3 -5 1 -9 9 -9 8 0 12 4 9 9 -8 12
10 10 24 -4 7 -7 12 -8 12 -2 0 6 13 9 30 6 17 -2 30 -9 30 -15 0 -6 7 -2 15
9 15 19 15 19 9 -1 -5 -17 -4 -18 8 -5 16 18 39 24 36 9 -2 -6 3 -14 10 -16 7
-3 10 1 6 10 -4 11 2 14 27 11 19 -2 36 1 41 8 6 10 8 10 8 -1 0 -11 3 -11 17
0 20 17 16 17 36 0 9 -7 14 -18 10 -25 -3 -6 -2 -7 2 -3 14 12 15 38 2 30 -7
-3 -8 -2 -4 3 4 4 24 7 44 5 22 -2 39 2 44 11 7 10 9 10 10 -2 0 -10 3 -8 9 5
l9 20 0 -20 c1 -17 3 -17 11 -5 9 13 10 13 10 0 0 -8 9 -2 20 15 11 17 20 25
20 20 0 -14 88 -11 103 4 15 15 30 14 22 -1 -4 -7 0 -4 9 6 8 10 13 22 11 27
-3 4 9 5 26 2 24 -3 29 -2 23 9 -5 9 -2 8 11 -2 17 -14 18 -13 12 4 -7 17 -6
17 10 5 11 -9 14 -10 9 -2 -4 8 -1 13 8 13 9 0 16 5 16 11 0 5 5 7 10 4 6 -3
10 -1 10 4 0 6 5 11 11 11 5 0 7 -6 3 -12 -6 -10 -4 -10 7 -2 8 6 22 10 32 9
9 -2 15 1 11 6 -3 5 -10 6 -16 3 -7 -4 -8 -2 -4 5 4 6 12 9 17 5 6 -3 16 2 23
12 10 13 15 14 21 4 6 -9 4 -11 -5 -5 -9 6 -11 4 -5 -5 6 -10 11 -10 20 3 14
20 30 23 19 5 -6 -10 -5 -10 8 -1 8 7 18 10 22 6 4 -4 4 1 0 11 -6 16 -3 18
28 14 25 -2 34 0 31 8 -3 8 6 11 27 9 17 -1 29 0 26 2 -3 3 -1 14 5 24 8 15
14 17 29 9 13 -7 21 -7 25 0 4 6 11 7 17 4 7 -4 8 -2 4 5 -6 8 -12 9 -20 2 -9
-8 -13 -7 -13 3 0 8 10 12 29 11 15 -1 28 2 28 7 0 6 7 8 15 5 8 -4 17 -2 20
3 4 6 0 10 -7 10 -9 0 -9 3 2 10 21 14 32 12 25 -2 -4 -7 2 -4 12 8 10 12 26
24 36 27 10 4 15 12 11 18 -4 7 2 6 17 -2 23 -12 23 -11 9 7 -8 10 -11 16 -6
12 13 -11 46 10 47 30 0 10 3 12 6 4 2 -6 9 -10 13 -7 5 3 7 12 4 20 -4 10 0
13 15 10 19 -4 26 6 22 29 -1 5 5 3 14 -4 13 -11 15 -10 9 3 -5 13 0 15 28 12
23 -3 28 -2 18 5 -12 8 -12 10 3 16 9 3 14 11 10 18 -4 6 1 5 10 -3 16 -12 21
-9 18 12 -1 4 10 11 23 16 31 12 40 48 16 61 -13 7 -21 7 -26 -2 -4 -6 -3 -8
3 -5 11 7 28 -22 18 -31 -3 -3 -5 -1 -5 5 0 14 -45 22 -61 12 -7 -4 -21 -3
-30 2 -12 6 -20 5 -25 -3 -4 -6 -3 -8 4 -4 6 3 13 2 16 -2 7 -12 -41 -9 -51 2
-5 5 -1 6 7 1 8 -5 12 -4 7 0 -10 12 -39 16 -32 5 12 -20 -14 -18 -36 3 -13
12 -27 21 -31 19 -13 -4 -9 16 5 22 6 3 0 3 -16 1 -15 -2 -25 0 -22 6 4 5 -1
9 -10 9 -9 0 -13 4 -10 10 3 5 -3 10 -13 10 -12 0 -22 9 -25 22 -5 16 -9 19
-19 11 -10 -9 -20 -5 -40 12 -15 13 -24 26 -21 29 4 3 -3 6 -15 6 -12 0 -22 5
-22 10 0 6 -6 10 -14 10 -8 0 -16 7 -20 15 -3 8 -15 15 -26 15 -13 0 -20 7
-20 20 0 15 -9 22 -30 26 -16 4 -35 14 -42 23 -11 14 -11 14 4 3 12 -9 18 -10
23 -2 4 6 4 14 1 17 -3 4 -6 0 -6 -7 0 -11 -3 -11 -12 -2 -7 7 -20 12 -29 12
-9 0 -19 7 -23 15 -3 8 0 15 6 15 6 0 8 3 5 6 -4 4 -14 1 -23 -7 -16 -13 -17
-12 -12 9 5 19 4 21 -7 12 -10 -8 -15 -7 -19 8 -4 11 -14 19 -24 18 -10 0 -16
5 -14 13 2 11 0 12 -11 3 -11 -10 -17 -9 -28 5 -13 17 -13 17 5 3 12 -9 17
-10 12 -3 -4 7 -16 18 -26 23 -16 9 -18 8 -13 -6 4 -12 3 -15 -5 -10 -7 4 -12
15 -12 24 0 13 -2 13 -15 -4 -13 -18 -14 -18 -8 4 4 18 2 21 -12 15 -13 -4
-16 -3 -11 5 5 9 0 9 -21 1 -15 -5 -25 -7 -21 -3 12 12 -24 39 -49 36 -17 -3
-23 2 -23 15 0 15 -2 16 -10 3 -8 -12 -10 -12 -10 5 0 15 -3 17 -9 7 -7 -11
-9 -11 -14 1 -3 9 -17 14 -39 12 -36 -2 -61 11 -51 28 3 6 1 7 -6 3 -6 -4 -9
-11 -6 -16 3 -4 -4 -6 -15 -3 -11 3 -20 8 -20 12 0 4 -21 8 -47 10 -26 1 -52
5 -57 9 -17 10 -37 11 -30 1 3 -5 1 -9 -5 -9 -5 0 -11 4 -13 9 -5 14 -43 17
-43 4 0 -15 -20 -18 -20 -4 0 5 -4 13 -9 18 -5 4 -6 3 -2 -4 3 -6 2 -14 -4
-18 -5 -3 -10 -2 -10 4 0 9 -16 9 -45 0 -5 -2 -21 3 -34 10 -22 12 -23 12 -17
-5 6 -18 5 -18 -9 0 -8 11 -15 14 -15 8 0 -8 -12 -10 -36 -6 -27 4 -34 3 -29
-7 5 -8 4 -10 -4 -5 -9 6 -9 12 1 24 12 16 11 16 -6 2 -15 -11 -20 -12 -23 -3
-4 10 -8 9 -19 -2 -15 -15 -48 -10 -38 6 3 5 -1 9 -10 9 -8 0 -16 6 -19 13 -3
9 -8 9 -18 -2 -8 -8 -9 -11 -3 -8 7 4 17 1 23 -7 9 -10 5 -13 -17 -11 -15 1
-30 -3 -34 -9 -5 -7 -8 -7 -8 2 0 7 -5 10 -10 7 -6 -4 -9 -1 -8 6 2 6 -3 14
-11 17 -9 3 -11 0 -6 -8 5 -9 4 -11 -3 -6 -7 4 -12 1 -12 -6 -1 -7 -6 -4 -13
8 -7 12 -19 19 -27 17 -13 -4 -13 -3 0 6 11 8 18 6 28 -6 6 -9 13 -14 13 -10
1 4 2 11 3 16 0 5 5 13 10 18 5 5 6 3 2 -4 -4 -7 -2 -13 3 -13 6 0 11 5 11 11
0 6 9 1 20 -12 21 -26 26 -19 9 13 -6 11 -7 18 -2 15 4 -3 17 1 28 9 10 8 13
14 6 14 -7 0 -9 6 -6 13 4 6 0 4 -8 -5 -19 -24 -30 -23 -17 2 8 14 8 20 0 20
-6 0 -10 8 -8 18 2 13 -3 16 -22 15 -14 -1 -19 0 -12 3 6 3 12 10 12 15 0 6
-4 7 -10 4 -5 -3 -10 -1 -10 5 0 7 -8 19 -18 28 -10 10 -12 13 -5 8 9 -5 8 2
-3 23 -9 17 -20 29 -25 26 -5 -4 -9 -1 -9 5 0 6 -5 8 -12 4 -9 -5 -9 -2 1 9 9
12 10 17 2 17 -7 0 -10 4 -6 9 3 5 0 13 -6 17 -8 4 -9 3 -5 -4 4 -7 2 -12 -3
-12 -6 0 -11 7 -11 16 0 9 -5 12 -12 8 -9 -5 -9 -2 1 9 10 12 10 17 2 17 -7 0
-10 8 -7 18 4 11 -2 22 -17 31 -22 14 -22 14 -3 -8 11 -11 15 -21 10 -21 -5 0
-15 9 -21 20 -11 16 -10 21 5 29 16 10 16 10 -1 11 -10 0 -15 5 -12 10 3 6 -2
10 -12 10 -15 0 -15 2 -3 9 8 6 19 7 25 5 5 -3 -1 4 -14 15 -14 13 -21 27 -17
36 3 9 -1 18 -9 21 -8 4 -15 10 -15 16 0 5 4 7 8 4 4 -2 9 5 9 17 2 18 0 19
-8 7 -8 -11 -9 -8 -5 13 5 18 2 29 -7 33 -8 3 -14 11 -14 19 0 12 4 12 21 -2
19 -16 19 -16 7 -1 -7 9 -10 22 -7 27 4 5 2 13 -4 16 -8 5 -7 12 2 23 8 10 9
13 1 9 -6 -4 -14 -3 -17 2 -4 5 2 12 11 14 17 4 17 5 1 6 -10 0 -18 6 -18 11
0 6 3 9 8 8 4 -2 7 2 7 7 0 6 -7 9 -15 8 -13 -1 -13 0 0 10 19 15 23 56 7 76
-9 12 -9 13 1 7 6 -4 12 -3 12 1 0 5 -6 15 -12 22 -11 11 -9 11 9 2 18 -9 21
-8 18 7 -1 10 -9 16 -20 14 -10 -2 -22 2 -27 10 -6 9 -8 6 -7 -12z m23 -68 c3
-5 -1 -9 -9 -9 -8 0 -12 4 -9 9 3 4 7 8 9 8 2 0 6 -4 9 -8z m-27 -37 c0 -8 -4
-12 -9 -9 -5 3 -6 10 -3 15 9 13 12 11 12 -6z m33 -99 c0 -3 -4 -8 -10 -11 -5
-3 -10 -1 -10 4 0 6 5 11 10 11 6 0 10 -2 10 -4z m-45 -205 c3 -5 2 -12 -3
-15 -5 -3 -9 1 -9 9 0 17 3 19 12 6z m-225 -201 c6 -11 8 -20 6 -20 -3 0 -10
9 -16 20 -6 11 -8 20 -6 20 3 0 10 -9 16 -20z m440 -60 c0 -5 -5 -10 -11 -10
-5 0 -7 5 -4 10 3 6 8 10 11 10 2 0 4 -4 4 -10z m-85 -100 c3 -5 2 -10 -4 -10
-5 0 -13 5 -16 10 -3 6 -2 10 4 10 5 0 13 -4 16 -10z m-115 -100 c0 -5 -2 -10
-4 -10 -3 0 -8 5 -11 10 -3 6 -1 10 4 10 6 0 11 -4 11 -10z m720 -72 c0 -6 -6
-5 -15 2 -8 7 -15 14 -15 16 0 2 7 1 15 -2 8 -4 15 -11 15 -16z m41 -11 c-10
-9 -11 -8 -5 6 3 10 9 15 12 12 3 -3 0 -11 -7 -18z m724 -315 c-3 -3 -11 0
-18 7 -9 10 -8 11 6 5 10 -3 15 -9 12 -12z m-405 -756 c0 -3 -4 -8 -10 -11 -5
-3 -10 -1 -10 4 0 6 5 11 10 11 6 0 10 -2 10 -4z"/>
<path d="M451 2136 c-6 -7 -9 -21 -5 -30 4 -11 2 -15 -7 -13 -8 2 -10 2 -6 -1
4 -2 3 -10 -4 -18 -6 -8 -8 -14 -3 -14 5 0 3 -4 -4 -9 -12 -7 -18 -25 -21 -54
-1 -5 -4 -6 -8 -4 -5 3 -9 -6 -9 -19 -1 -13 2 -24 8 -24 5 0 6 5 3 10 -3 6 -1
10 5 10 7 0 9 -7 6 -16 -3 -9 -2 -12 5 -8 6 3 5 -3 -3 -15 -7 -12 -17 -21 -22
-21 -4 0 -3 7 4 15 9 10 9 15 1 15 -6 0 -11 -3 -12 -7 0 -5 -2 -16 -4 -26 -3
-14 1 -18 14 -14 10 2 18 -1 18 -8 0 -7 -8 -10 -17 -8 -9 2 -23 -4 -31 -14
-13 -16 -13 -17 4 -4 13 11 20 11 32 1 12 -10 12 -15 -1 -35 -13 -20 -13 -23
2 -29 12 -5 15 -2 10 9 -3 9 -2 14 3 11 5 -3 8 11 7 32 -3 46 3 64 17 55 6 -3
7 -1 3 6 -4 6 -13 8 -19 4 -8 -5 -8 -2 1 9 7 8 9 24 5 33 -5 14 -3 16 7 10 9
-5 11 -4 6 3 -4 7 -1 12 6 12 9 0 9 3 2 8 -16 10 -24 51 -12 59 6 3 8 1 4 -5
-3 -6 -3 -13 2 -16 4 -2 9 4 9 15 1 10 -3 19 -8 19 -6 0 -7 5 -4 10 5 8 12 7
23 -2 13 -11 14 -11 7 2 -15 24 -15 59 0 54 7 -3 16 -1 20 5 4 7 0 8 -11 4
-12 -4 -15 -3 -10 5 10 16 1 15 -13 -2z m-27 -158 c-9 -14 -23 2 -17 18 4 12
8 13 14 3 4 -7 5 -17 3 -21z"/>
<path d="M3035 2140 c3 -5 8 -10 11 -10 2 0 4 5 4 10 0 6 -5 10 -11 10 -5 0
-7 -4 -4 -10z"/>
<path d="M2733 2085 c0 -8 4 -12 9 -9 5 3 6 10 3 15 -9 13 -12 11 -12 -6z"/>
<path d="M1660 2045 c-7 -9 -8 -15 -2 -15 5 0 12 7 16 15 3 8 4 15 2 15 -2 0
-9 -7 -16 -15z"/>
<path d="M2737 2023 c3 -7 6 -13 8 -13 1 0 7 6 13 13 8 10 6 13 -7 13 -11 0
-17 -6 -14 -13z"/>
<path d="M279 1957 c6 -6 4 -19 -6 -33 -8 -13 -12 -24 -8 -24 4 0 2 -7 -5 -15
-9 -10 -9 -15 -1 -15 10 0 15 13 12 33 0 4 4 7 10 7 5 0 7 5 3 12 -4 7 -3 8 5
4 16 -10 -21 -72 -40 -68 -8 2 -3 -9 11 -24 14 -16 17 -22 7 -15 -15 12 -20
12 -30 1 -8 -9 -8 -11 -1 -7 7 4 15 0 18 -9 5 -12 2 -15 -9 -10 -9 3 -14 2
-11 -2 2 -4 1 -14 -4 -22 -6 -10 -3 -21 7 -33 16 -17 16 -17 0 -11 -20 7 -22
-6 -4 -25 9 -10 9 -12 0 -7 -9 5 -11 -2 -8 -24 2 -17 0 -28 -6 -24 -5 3 -6 10
-3 16 4 7 2 8 -4 4 -6 -4 -8 -14 -5 -22 3 -9 0 -20 -8 -25 -12 -7 -12 -9 0 -9
7 0 11 -6 8 -14 -5 -14 -1 -34 18 -91 3 -11 -1 -8 -10 8 -8 15 -21 27 -28 27
-8 0 -8 -3 2 -9 8 -5 10 -14 6 -21 -6 -9 -4 -11 5 -5 10 6 12 3 8 -13 -4 -12
-2 -20 3 -16 11 7 11 1 0 -29 -8 -20 -6 -29 8 -41 10 -9 22 -13 26 -9 5 5 3 0
-4 -10 -11 -14 -16 -15 -22 -5 -5 7 -9 9 -9 3 1 -18 27 -45 36 -37 4 4 2 -1
-5 -11 -12 -15 -12 -20 -1 -30 9 -9 11 -9 6 0 -3 6 -2 14 3 17 5 3 7 -10 5
-29 -2 -24 2 -38 14 -46 16 -10 16 -10 0 -5 -22 6 -23 -1 -4 -19 7 -8 17 -11
22 -7 5 4 0 -3 -11 -16 -16 -20 -16 -22 -2 -16 15 5 19 0 16 -22 0 -4 5 -11
13 -15 10 -7 8 -9 -7 -10 -14 0 -16 -2 -5 -6 8 -4 21 -13 30 -22 13 -13 13
-14 -3 -8 -9 3 -17 2 -17 -3 0 -6 6 -10 14 -10 7 0 20 -8 27 -17 10 -11 10
-14 2 -9 -16 9 -16 1 -2 -25 5 -11 15 -16 21 -13 7 4 8 3 4 -5 -4 -6 -11 -9
-15 -7 -4 3 -8 -1 -8 -9 0 -8 4 -12 9 -9 4 3 8 0 8 -6 0 -6 5 -8 11 -4 8 4 9
-1 4 -16 -6 -19 -4 -21 17 -16 12 3 17 3 11 0 -18 -8 -17 -37 1 -31 10 4 12 0
8 -15 -3 -14 -1 -19 6 -14 7 4 12 1 12 -9 0 -10 -5 -13 -12 -9 -9 5 -8 2 1 -9
11 -14 16 -15 29 -5 13 10 14 10 8 0 -4 -7 -4 -21 -1 -33 6 -17 9 -18 23 -7
13 11 15 10 9 -4 -8 -22 2 -50 14 -42 5 3 9 0 9 -6 0 -6 7 -18 15 -26 12 -12
15 -12 15 -2 0 10 3 9 10 -2 5 -8 10 -11 10 -6 0 6 6 2 13 -8 12 -16 14 -16
14 -2 0 9 -3 16 -7 16 -9 0 -5 44 6 61 4 7 3 10 -2 7 -5 -3 -18 4 -29 15 -11
11 -14 17 -8 13 9 -5 11 -2 7 8 -3 9 -11 13 -18 9 -6 -3 -8 -3 -4 2 4 4 2 15
-5 23 -9 12 -6 11 15 -2 17 -11 28 -13 33 -7 8 14 -2 31 -18 30 -9 0 -9 -2 1
-6 6 -2 12 -9 12 -15 0 -6 -6 -5 -15 2 -9 7 -13 15 -10 18 2 3 -3 11 -13 19
-15 13 -14 13 7 3 18 -9 22 -9 16 0 -4 7 -1 17 6 22 10 6 6 7 -11 3 -25 -6
-25 -6 -5 11 17 14 17 16 2 11 -14 -5 -16 -2 -13 18 3 15 1 23 -5 20 -5 -4 -6
-11 -3 -17 4 -7 2 -8 -4 -4 -6 4 -9 13 -5 21 4 11 1 13 -13 8 -17 -6 -17 -5
-5 10 8 11 9 17 3 17 -7 0 -9 8 -5 18 6 15 5 16 -12 2 -10 -8 -16 -10 -12 -4
4 7 -3 25 -15 40 -20 25 -20 27 -3 14 18 -14 19 -13 8 1 -7 9 -10 19 -6 23 4
4 0 4 -9 1 -9 -4 -18 0 -21 9 -4 11 -1 13 11 9 13 -4 13 -2 -3 10 -10 8 -26
12 -35 10 -10 -4 -8 0 5 11 11 10 15 15 9 12 -13 -6 -27 21 -19 34 3 5 -5 7
-17 5 -22 -4 -22 -4 -3 10 19 15 19 16 0 33 -18 16 -18 16 -6 -1 12 -15 12
-17 -3 -11 -19 7 -20 15 -3 33 10 11 9 12 -2 6 -11 -6 -13 -2 -9 19 3 15 3 24
0 21 -3 -2 -11 0 -19 7 -11 9 -11 14 3 29 15 16 14 17 -8 12 -21 -6 -22 -5 -9
10 8 11 9 17 3 17 -6 0 -9 7 -6 15 4 9 0 15 -7 16 -8 0 -5 4 6 9 15 6 16 9 4
9 -12 1 -16 10 -14 36 1 19 -2 35 -7 35 -4 0 -3 11 2 25 11 28 3 33 -14 9 -10
-13 -12 -10 -11 15 0 16 4 33 7 37 4 4 5 -3 3 -16 -3 -18 -2 -20 10 -10 8 7
12 17 8 24 -8 11 -9 17 -12 37 0 5 -5 8 -9 5 -5 -3 -9 1 -9 8 0 8 6 12 13 9
17 -6 11 26 -7 38 -11 7 -10 9 6 9 17 0 17 2 5 10 -8 5 -10 10 -3 10 7 0 9 14
6 43 -4 33 -2 39 7 27 10 -13 11 -13 7 0 -2 8 -9 15 -15 15 -7 0 -12 5 -12 10
0 11 19 14 35 6 6 -3 2 2 -8 12 -17 15 -16 21 4 19 4 -1 4 8 1 20 -4 16 -2 19
9 13 11 -6 12 -5 1 6 -10 11 -8 16 10 27 l23 13 -22 -6 c-13 -4 -23 -2 -23 4
0 5 -9 9 -20 8 -12 -1 -16 -5 -11 -10z m27 -23 c1 -9 0 -13 -4 -10 -3 4 -7 14
-8 22 -1 9 0 13 4 10 3 -4 7 -14 8 -22z m-53 -169 c-3 -9 -8 -14 -10 -11 -3 3
-2 9 2 15 9 16 15 13 8 -4z m-26 -150 c0 -8 -4 -12 -9 -9 -5 3 -6 10 -3 15 9
13 12 11 12 -6z m13 -199 c-7 -7 -14 -6 -21 1 -9 9 -7 12 9 10 14 -1 18 -5 12
-11z m328 -640 c0 -18 -5 -25 -17 -23 -19 3 -62 43 -54 51 8 7 33 -20 33 -35
0 -9 3 -10 11 -2 8 8 8 17 -1 33 -10 20 -10 21 8 11 11 -6 20 -21 20 -35z"/>
<path d="M1625 1960 c-3 -5 -3 -10 2 -10 4 0 1 -5 -7 -11 -12 -8 -12 -10 -1
-7 8 2 15 12 17 21 3 19 -2 22 -11 7z"/>
<path d="M2759 1897 c12 -15 12 -22 0 -45 -7 -15 -15 -30 -17 -34 -2 -5 -1 -8
3 -8 3 0 10 11 15 25 5 14 15 25 21 25 8 0 8 -4 0 -14 -8 -10 -9 -16 -1 -21 6
-4 9 -1 8 7 -2 7 5 12 14 12 10 -1 14 4 11 12 -3 7 -10 12 -16 11 -7 -1 -11 6
-10 16 0 10 -2 16 -5 13 -3 -3 -12 0 -21 7 -14 11 -14 10 -2 -6z"/>
<path d="M373 1841 c-3 -12 -8 -21 -12 -21 -4 0 -7 -9 -7 -19 0 -11 4 -17 8
-15 4 3 8 0 8 -5 0 -6 -5 -11 -11 -11 -8 0 -9 -4 0 -13 6 -8 8 -17 4 -21 -12
-12 -14 -48 -2 -40 6 3 4 -5 -5 -18 -13 -21 -14 -27 -3 -36 7 -6 12 -24 11
-39 -1 -15 3 -33 8 -40 6 -7 3 -15 -9 -22 -17 -10 -17 -10 2 -11 11 -1 15 -4
9 -6 -6 -3 -9 -16 -6 -30 4 -20 7 -23 14 -12 7 9 8 7 3 -7 -13 -37 -14 -55 -4
-60 5 -4 7 -10 4 -15 -13 -20 42 -35 64 -17 12 9 13 9 7 0 -4 -7 -2 -13 3 -13
6 0 14 0 19 0 4 0 7 3 7 8 0 4 4 14 10 22 7 12 6 13 -6 3 -9 -8 -20 -9 -29 -3
-12 8 -12 10 3 10 10 0 15 5 12 10 -4 6 -10 8 -14 6 -4 -3 -8 4 -8 15 -1 10 3
19 8 19 6 0 7 -5 3 -12 -4 -7 -3 -8 5 -4 14 9 5 26 -14 26 -9 0 -12 6 -8 17 4
10 2 14 -5 9 -6 -3 -14 -1 -18 5 -4 7 -3 9 4 5 16 -10 26 14 12 27 -10 9 -11
9 -5 -2 5 -9 4 -12 -3 -7 -9 5 -9 13 -2 27 7 13 7 19 0 19 -5 0 -10 -5 -10
-12 0 -6 -3 -8 -6 -5 -4 4 -1 14 6 22 11 13 9 21 -16 47 -16 18 -21 26 -11 19
14 -11 17 -11 17 1 0 8 -5 19 -11 25 -9 9 -7 10 10 6 13 -3 21 -1 21 6 0 7 -4
10 -8 7 -4 -2 -14 -1 -21 4 -10 6 -9 9 7 14 23 8 26 42 5 51 -10 3 -11 0 -3
-15 7 -13 7 -21 -2 -26 -7 -4 -8 -3 -4 4 4 8 0 12 -11 12 -14 0 -15 2 -5 9 8
4 13 12 13 17 -1 5 4 9 11 9 6 0 12 8 14 19 2 13 0 16 -8 8 -8 -8 -17 -8 -30
-1 -18 10 -18 12 -4 34 11 16 12 26 5 30 -6 4 -13 -2 -16 -14z m29 -409 c-7
-2 -9 -9 -5 -15 10 -16 13 -41 5 -32 -4 4 -8 11 -8 16 -1 5 -2 10 -4 12 -1 1
-3 10 -5 19 -2 12 2 15 13 10 10 -4 12 -7 4 -10z"/>
<path d="M437 1837 c-3 -8 1 -14 8 -14 7 0 11 6 8 14 -3 7 -6 13 -8 13 -2 0
-5 -6 -8 -13z"/>
<path d="M2705 1821 c-3 -5 0 -13 6 -17 7 -4 9 -3 5 4 -3 5 0 13 6 15 9 4 10
6 1 6 -6 1 -14 -3 -18 -8z"/>
<path d="M725 1780 c3 -5 8 -10 11 -10 2 0 4 5 4 10 0 6 -5 10 -11 10 -5 0 -7
-4 -4 -10z"/>
<path d="M2675 1760 c-3 -5 -1 -10 4 -10 6 0 11 5 11 10 0 6 -2 10 -4 10 -3 0
-8 -4 -11 -10z"/>
<path d="M573 1725 c0 -8 4 -12 9 -9 5 3 6 10 3 15 -9 13 -12 11 -12 -6z"/>
<path d="M743 1685 c0 -8 4 -15 9 -15 4 0 8 4 8 9 0 6 -4 12 -8 15 -5 3 -9 -1
-9 -9z"/>
<path d="M2535 1617 c-10 -8 -14 -16 -9 -19 5 -3 17 3 27 14 20 21 9 24 -18 5z"/>
<path d="M180 1571 c0 -6 4 -13 10 -16 6 -3 7 1 4 9 -7 18 -14 21 -14 7z"/>
<path d="M348 1553 c7 -3 16 -2 19 1 4 3 -2 6 -13 5 -11 0 -14 -3 -6 -6z"/>
<path d="M790 1510 c0 -5 5 -10 11 -10 5 0 7 5 4 10 -3 6 -8 10 -11 10 -2 0
-4 -4 -4 -10z"/>
<path d="M2375 1509 c-4 -6 -5 -12 -2 -15 2 -3 7 2 10 11 7 17 1 20 -8 4z"/>
<path d="M630 1480 c0 -5 5 -10 10 -10 6 0 10 5 10 10 0 6 -4 10 -10 10 -5 0
-10 -4 -10 -10z"/>
<path d="M2290 1481 c-8 -6 -19 -7 -25 -3 -5 3 -4 -2 4 -11 7 -9 16 -17 19
-17 3 0 2 3 -1 7 -4 3 1 12 11 19 19 15 14 18 -8 5z"/>
<path d="M2010 1422 c0 -4 10 -9 22 -9 18 -2 20 0 8 7 -18 12 -30 13 -30 2z"/>
<path d="M445 1360 c6 -10 3 -12 -11 -7 -18 7 -18 6 -1 -7 9 -7 17 -18 17 -25
0 -6 5 -11 10 -11 7 0 7 6 1 19 -6 10 -8 21 -5 24 3 3 0 8 -7 13 -8 5 -10 3
-4 -6z"/>
<path d="M495 1360 c-3 -5 -1 -10 4 -10 6 0 11 5 11 10 0 6 -2 10 -4 10 -3 0
-8 -4 -11 -10z"/>
<path d="M470 1340 c0 -5 5 -10 11 -10 5 0 7 5 4 10 -3 6 -8 10 -11 10 -2 0
-4 -4 -4 -10z"/>
<path d="M1080 1290 c-8 -5 -12 -12 -9 -15 4 -3 12 1 19 10 14 17 11 19 -10 5z"/>
<path d="M1030 1266 c0 -2 8 -10 18 -17 15 -13 16 -12 3 4 -13 16 -21 21 -21
13z"/>
<path d="M1150 1239 c0 -5 5 -7 10 -4 6 3 10 8 10 11 0 2 -4 4 -10 4 -5 0 -10
-5 -10 -11z"/>
<path d="M1244 1242 c4 -3 14 -7 22 -8 9 -1 13 0 10 4 -4 3 -14 7 -22 8 -9 1
-13 0 -10 -4z"/>
<path d="M270 1159 c0 -5 5 -7 10 -4 6 3 10 8 10 11 0 2 -4 4 -10 4 -5 0 -10
-5 -10 -11z"/>
<path d="M308 1073 c7 -3 16 -2 19 1 4 3 -2 6 -13 5 -11 0 -14 -3 -6 -6z"/>
<path d="M570 920 c0 -5 5 -10 11 -10 5 0 7 5 4 10 -3 6 -8 10 -11 10 -2 0 -4
-4 -4 -10z"/>
<path d="M570 840 c0 -5 5 -10 11 -10 5 0 7 5 4 10 -3 6 -8 10 -11 10 -2 0 -4
-4 -4 -10z"/>
<path d="M2410 786 c0 -2 8 -10 18 -17 15 -13 16 -12 3 4 -13 16 -21 21 -21
13z"/>
<path d="M2590 671 c0 -5 7 -15 17 -22 15 -13 15 -12 4 9 -12 23 -21 28 -21
13z"/>
<path d="M1736 91 c-3 -4 6 -7 19 -7 14 0 22 2 19 5 -8 8 -34 10 -38 2z"/>
<path d="M1456 41 c-3 -5 1 -11 9 -14 9 -4 12 -1 8 9 -6 16 -10 17 -17 5z"/>
<path d="M1495 40 c-3 -5 -1 -10 4 -10 6 0 11 5 11 10 0 6 -2 10 -4 10 -3 0
-8 -4 -11 -10z"/>
</g>
</svg>
