<?xml version="1.0" standalone="no"?>
<!DOCTYPE svg PUBLIC "-//W3C//DTD SVG 20010904//EN"
 "http://www.w3.org/TR/2001/REC-SVG-20010904/DTD/svg10.dtd">
<svg version="1.0" xmlns="http://www.w3.org/2000/svg"
 width="288.000000pt" height="288.000000pt" viewBox="0 0 288.000000 288.000000"
 preserveAspectRatio="xMidYMid meet">
<metadata>
Created by potrace 1.14, written by Peter Selinger 2001-2017
</metadata>
<g transform="translate(0.000000,288.000000) scale(0.100000,-0.100000)"
fill="#000000" stroke="none">
<path d="M1293 2229 c-299 -28 -537 -218 -704 -562 -82 -170 -103 -317 -118
-852 -8 -272 -10 -294 -33 -360 -49 -137 -129 -270 -235 -393 l-55 -62 404 0
403 0 57 139 c70 169 114 302 128 383 5 33 11 62 12 64 2 1 31 -15 64 -36 120
-76 266 -119 360 -106 97 13 206 95 325 246 34 44 64 80 66 80 9 0 -105 -333
-236 -687 l-30 -83 194 0 195 0 0 52 c0 40 11 76 51 166 31 71 55 140 61 181
11 76 3 223 -21 396 -18 132 -15 214 14 403 16 106 16 122 1 240 -9 70 -24
154 -32 187 -41 163 -166 334 -286 394 -34 17 -68 31 -76 31 -8 0 -38 22 -68
49 -115 105 -258 147 -441 130z m252 -404 c104 -22 205 -76 287 -153 l71 -67
-70 -16 c-79 -17 -93 -24 -93 -45 0 -18 2 -18 85 6 96 27 101 26 126 -22 44
-85 60 -151 66 -263 5 -102 4 -108 -11 -90 -15 19 -15 19 -16 -12 0 -17 7 -39
16 -47 23 -23 9 -130 -26 -203 -59 -123 -205 -299 -303 -367 -45 -31 -64 -38
-123 -43 -115 -9 -232 38 -398 160 -74 55 -198 189 -253 275 -30 46 -38 52
-68 52 -27 0 -34 4 -37 22 -4 25 -28 37 -28 14 0 -26 -26 -19 -61 16 -67 67
-78 154 -30 230 28 44 73 78 103 78 7 0 29 5 49 10 30 8 51 30 123 124 172
227 343 351 491 355 17 0 62 -6 100 -14z m-715 -1061 c0 -46 -60 -59 -86 -19
-11 17 -10 28 14 79 l26 59 23 -49 c13 -27 23 -59 23 -70z"/>
<path d="M1405 1598 c-16 -6 -39 -17 -50 -25 l-20 -15 20 6 c75 20 128 14 283
-30 18 -5 22 -2 22 14 0 23 -22 31 -134 51 -70 13 -82 13 -121 -1z"/>
<path d="M1484 1495 c-28 -43 -4 -135 36 -135 19 0 41 30 47 63 4 29 2 37 -10
37 -11 0 -15 8 -14 27 3 39 -35 44 -59 8z"/>
<path d="M1852 1495 c-18 -40 -15 -92 8 -115 26 -26 34 -25 59 6 24 31 28 74
7 74 -10 0 -14 9 -13 28 2 22 -2 28 -24 30 -19 2 -28 -3 -37 -23z"/>
<path d="M1670 1361 c0 -11 20 -72 45 -134 24 -63 43 -127 42 -143 -1 -20 3
-29 13 -29 32 0 22 75 -28 199 -44 113 -72 154 -72 107z"/>
<path d="M765 1230 c-9 -15 13 -106 30 -120 17 -14 45 -2 45 19 0 9 -6 36 -14
61 -13 45 -45 66 -61 40z"/>
<path d="M1296 1174 c-9 -24 -7 -64 3 -64 11 0 21 25 21 56 0 27 -15 32 -24 8z"/>
<path d="M1350 1166 c-5 -15 -10 -34 -10 -42 0 -26 23 -10 32 21 10 39 -8 57
-22 21z"/>
<path d="M1407 1183 c-12 -21 -16 -63 -7 -68 10 -6 30 34 30 61 0 15 -16 19
-23 7z"/>
<path d="M1450 857 c0 -18 11 -22 104 -38 107 -18 246 4 246 38 0 13 -7 14
-37 7 -51 -11 -185 -11 -255 0 -49 7 -58 6 -58 -7z"/>
</g>
</svg>
